<?xml version="1.0" encoding="UTF-8"?><svg xmlns="http://www.w3.org/2000/svg" xmlns:xlink="http://www.w3.org/1999/xlink" fill="#131820" viewBox="0 0 32 32" version="1.1"><path d="M9 4C7.355 4 6 5.355 6 7v18c0 1.645 1.355 3 3 3h14c1.645 0 3-1.355 3-3V7c0-1.645-1.355-3-3-3zm0 2h14c.563 0 1 .438 1 1v18c0 .563-.438 1-1 1H9c-.563 0-1-.438-1-1V7c0-.563.438-1 1-1zm4 2l-2 .031S10.984 17.04 11 17c7.648-3.594 8-1.188 8-1.188V24h2v-8.156C21 10.816 13 14 13 14zm6.281 0S17.945 9.844 17 11h2.625C21.051 9.156 22 8 22 8zM11 19v4.969l3-2.469z" id="surface1"/><metadata><rdf:RDF xmlns:rdf="http://www.w3.org/1999/02/22-rdf-syntax-ns#" xmlns:rdfs="http://www.w3.org/2000/01/rdf-schema#" xmlns:dc="http://purl.org/dc/elements/1.1/"><rdf:Description about="https://iconscout.com/legal#licenses" dc:title="heroku" dc:description="heroku" dc:publisher="Iconscout" dc:date="2017-12-30" dc:format="image/svg+xml" dc:language="en"><dc:creator><rdf:Bag><rdf:li>Icons8</rdf:li></rdf:Bag></dc:creator></rdf:Description></rdf:RDF></metadata></svg>